<svg version="1" xmlns="http://www.w3.org/2000/svg" width="666.667" height="666.667" viewBox="0 0 500.000000 500.000000"><path d="M361.5 43.6c-1.6.3-7.9 1.1-14 2-17.6 2.5-29.1 5.1-44.6 10-14.6 4.7-16.5 5.5-32.4 12.9-15.3 7.1-37.8 22.2-49.5 33.1-2.5 2.3-6 5.5-7.9 7-1.9 1.6-8 8-13.5 14.4-21.8 24.8-37.8 54.1-49.2 90-5 15.8-12.8 44-14.4 52.2-.6 3.2-1.2 5.8-1.3 5.8-.2 0-.2-21-.2-46.8 0-29.2-.5-51.7-1.2-60.2-.7-7.4-1.9-20.9-2.8-30-4-44.7-9.3-67.6-18-77.8-3.8-4.5-6.8-5.6-10.3-3.8-9.5 5-28.3 34.7-43.3 68.6-4.5 10.2-8.8 19.4-9.5 20.5-1.8 2.6-1.8 5.5.1 5.5 2 0 6.7-7.5 14.5-23 12.8-25.5 33.8-60.8 38.9-65.4 5.1-4.6 9.9 5 15 29.9 2.2 10.6 4.5 35 6 62.5 1.2 23 .8 117.2-.8 160.8-1.4 37.4-1.2 39.2 2.5 39.2 2.1 0 3-2.5 6.8-19.5 7.3-32.9 16.1-67.2 24.2-94 10.4-34.1 22-60.3 36.6-81.8 9.2-13.7 14.1-19.6 26.8-32 36-35 73.3-53.5 131.5-65.1 24.3-4.9 39.7-5.5 48.7-1.9 2 .8 4.9 1.3 6.5 1.1 2.5-.3 2.8-.7 2.8-3.7 0-2.8-.6-3.7-3-5.1-7.5-4.2-12.8-5.2-27.5-5.5-8-.2-15.8-.1-17.5.1z"/><path d="M276.8 162c-1.6 1-7.8 11.1-10.7 17.5-.7 1.6-1.9 4.3-2.7 6-2.8 6.2-11.4 30.7-15 42.6-3.3 11.2-14.7 37.1-36.1 81.9-5 10.4-12.4 23-13.5 23-3.1 0-1.3-28.1 3.7-57 4-23.3 4.7-25.9 7.4-27.3 1.3-.7 2.2-1.7 2-2.2-.8-2.1-8-.7-15.5 3-16.9 8.5-33.1 24-40.6 39-6.2 12.3-11.9 34.8-10.4 40.9 1 4 5 7.6 8.4 7.6 3.8 0 10.8-4.6 15.9-10.4 4.7-5.3 15.2-20.4 19.6-28.1l2.9-5-.6 4c-.3 2.2-.9 10.2-1.3 17.7-.5 11.7-.3 14.4 1.1 18.3 1.9 5 3.9 6.5 8.5 6.5 4.8 0 12-7.5 18.6-19.5.6-1.1 2.5-4.5 4.2-7.5 1.7-3 4.9-9.2 7.2-13.8 2.3-4.5 4.3-8.2 4.5-8.2.2 0-.1 2.4-.5 5.2-1.9 11.7-2.8 27.6-1.8 31.2 1.1 4 4.2 6.6 7.9 6.6 6.7 0 19.5-12.4 36.7-35.5 5.7-7.7 11-14.7 11.6-15.5.7-.8 3.2-4.2 5.6-7.5 2.4-3.3 4-5.1 3.6-4-.4 1.1-1.8 4.9-3.2 8.4-5.7 15.2-7.8 31.5-4.9 38.5 2 4.9 6.1 7.6 11.2 7.6 4.9 0 13.4-3.6 17.9-7.6 1.7-1.4 3.7-3.1 4.5-3.8 3.4-2.6 14.3-15.2 17.8-20.4 2-3.2 4-5.9 4.4-6.2 1.5-1.2 11.9-23.1 14.2-30.1 3.9-11.7 4.3-17.8 1.6-23.4-5-10.4-22-14.8-19.6-5 .4 1.4 1.3 2.5 2.2 2.5 3.2 0 9.1 4 10.4 6.9 1.7 4.3-.7 13.5-6.9 25.9-12 24.2-27 43.5-39.4 50.6-6.5 3.7-8.3 4-10.6 1.7-3.3-3.3-2.7-10.6 1.8-24.1 5.3-15.7 6.7-18.9 21-46.9 12.8-25.2 13.4-27.2 8.5-27.9-2.5-.4-6.4 3.7-20.8 21.8-6.4 8-12.7 15.8-14.2 17.5-1.4 1.6-10.5 13.6-20.2 26.5-24.5 32.6-32.4 42.1-33.9 40.7-.6-.7 1.5-12.6 6.8-39.7 4.9-24.8 7.6-35.2 11.1-43 1.9-4.1 4.2-9.5 5.2-12s3-7 4.3-10c5.1-11.3 17.3-49.8 17.3-54.6 0-1.3-.9-2.8-1.9-3.4-2.4-1.2-3.1-1.2-5.3 0zm-78.9 98.1c-7.7 24-36.9 69.9-44.4 69.9-7 0 6-37.5 18.5-53.2 2.1-2.7 5.9-6.7 8.5-9 5-4.5 18.8-14.8 19.3-14.4.1.2-.7 3.2-1.9 6.7zM168.5 366.8c-5.5 1.9-7.5 5-7.5 11.7 0 6.3 2.1 10.1 6.6 11.5 4.6 1.5 10.7-.1 12.8-3.3 3.6-5.6 2.7-15.3-1.7-18.1-2.8-1.8-7.6-2.6-10.2-1.8zm7.1 4c5.1 3.4 4.1 14.1-1.5 16-5.2 1.8-9.3-1.5-9.5-7.6-.1-5.5 2.6-9.2 6.7-9.2 1.7 0 3.7.4 4.3.8zM210.3 367.1c-1.8.5-3.9 1.9-4.8 3.1-2 3-2 13.6 0 16.5 3.9 5.5 15 5.1 18-.7 1.7-3.4 2-10.9.4-14.3-1.9-4.3-7.9-6.3-13.6-4.6zm8.9 4.6c3.3 3.8 3.4 10.6.1 13.8-2.5 2.5-7.8 1.9-10.3-1.3-2.6-3.2-2.3-9.1.6-12.3 2.2-2.4 7.6-2.5 9.6-.2zM237 367.1c-5.5 1.2-8 4.9-8 12 0 5 .4 6.4 2.4 8.4 2.8 2.7 8.1 4 13.1 3.1l3.5-.7V378h-4c-2.9 0-4 .4-4 1.5 0 .9.9 1.5 2.5 1.5 2.1 0 2.5.5 2.5 3 0 2.4-.4 3-2.2 3.1-4.7.3-6.4-.3-8.5-2.7-2.7-2.9-2.9-6.3-.8-10.4 1.7-3.3 5-4.5 10-3.7 3.4.6 5.6-.7 3.9-2.3-1.5-1.3-6.7-1.8-10.4-.9zM119 378.4c0 10.9.1 11.6 2 11.6 1.7 0 2-.7 2-4.3 0-4.2 0-4.3 3.8-4.5 2-.2 4.5-1.1 5.6-2.1 2-2.1 2.5-8.6.7-10.4-.6-.6-4-1.3-7.6-1.5l-6.5-.4v11.6zm10.1-7.4c3.9 2.1 1.6 7-3.3 7-2.6 0-2.8-.3-2.8-4 0-3.4.3-4 2.1-4 1.1 0 2.9.5 4 1zM138.3 378.6c.1 6.4.5 11.6 1 11.5.4 0 1.2-.1 1.7-.1.6 0 1-2.3 1-5v-5h11v5c0 4.3.3 5 2 5 1.9 0 2-.7 2-11.5s-.1-11.5-2-11.5c-1.7 0-2 .7-2 4.5v4.5h-11v-4.5c0-3.8-.3-4.5-2-4.5-1.9 0-1.9.6-1.7 11.6zM184 368.5c0 1 1.1 1.5 3.5 1.5h3.5v10c0 9.3.1 10 2 10s2-.7 2-10v-10h3.5c2.4 0 3.5-.5 3.5-1.5 0-1.2-1.7-1.5-9-1.5s-9 .3-9 1.5zM252.8 378.5c-.3 10.4-.1 11.5 1.5 11.5 1.4 0 1.7-.9 1.7-4.5 0-4 .2-4.5 2.3-4.5 1.6 0 2.9 1.2 4.7 4.5 1.4 2.5 2.8 4.5 3.2 4.6 5.9.7 7.2.2 8.3-3.2 1-3 1.6-3.4 5.3-3.7 3.9-.3 4.2-.1 5.9 3.6 1.3 2.9 2.2 3.8 3.4 3.3 1.4-.5 1-2.1-2.8-11.9-5.9-14.7-6.7-14.7-12.3-.1l-4.3 11.1-2.7-4.3c-2.7-4.3-2.7-4.4-.9-6.2 1.2-1.1 1.9-3.2 1.9-5.6 0-4.6-2.5-6.1-10-6.1h-4.9l-.3 11.5zm10.3-7.5c3.8 2.1 1 7-4.1 7-2.6 0-2.8-.3-2.8-4-.1-3.6.2-4 2.4-4 1.4 0 3.4.5 4.5 1zm18.2 3.7c.2 1 .8 2.6 1.2 3.5.6 1.5.2 1.8-1.9 1.8-2.7 0-3-.8-2-4.8.8-2.6 2-2.9 2.7-.5zM293 378.5c0 9.6.3 11.5 1.5 11.5 1.1 0 1.5-1.2 1.5-4.5V381h3.8c5.5 0 8.2-2.3 8.2-7 0-5.1-2.6-7-9.7-7H293v11.5zm10.4-6.9c3.2 3.1.8 6.4-4.7 6.4-2.2 0-2.5-.4-2.5-4-.1-3.7.1-4 2.8-4 1.6 0 3.6.7 4.4 1.6zM312 378.5c0 10.8.1 11.5 2 11.5 1.7 0 2-.7 2-5v-5h11v5c0 3.8.4 5 1.5 5 1.2 0 1.5-1.9 1.5-11.5s-.3-11.5-1.5-11.5c-1.1 0-1.5 1.2-1.5 4.5 0 2.5-.4 4.5-1 4.6-.5 0-2.6.1-4.5.1s-3.9-.1-4.5-.1c-.5-.1-1-2.1-1-4.6 0-3.8-.3-4.5-2-4.5-1.9 0-2 .7-2 11.5zM333 367.5c0 .3 1.6 3.7 3.5 7.5 2.3 4.5 3.5 8.4 3.5 11 0 3.3.3 4 2 4s2-.7 2-4.6c0-3.4.9-6.2 3.5-10.8 4-7.3 4.1-7.6 1.7-7.6-1.2 0-2.6 1.7-4.2 5-2.2 4.6-4 6.4-4 4 0-2-5.1-9-6.5-9-.8 0-1.5.2-1.5.5z"/></svg>